<svg xmlns="http://www.w3.org/2000/svg" width="160" height="56" fill="none" viewBox="0 0 160 56"><defs><linearGradient id="textGrad" x1="0%" x2="100%" y1="0%" y2="0%"><stop offset="0%" style="stop-color:#c084fc;stop-opacity:1"/><stop offset="50%" style="stop-color:#f472b6;stop-opacity:1"/><stop offset="100%" style="stop-color:#22d3ee;stop-opacity:1"/></linearGradient><linearGradient id="textWhite" x1="0%" x2="100%" y1="0%" y2="0%"><stop offset="0%" style="stop-color:#fff;stop-opacity:1"/><stop offset="100%" style="stop-color:#f0f9ff;stop-opacity:.95"/></linearGradient></defs><g id="wordmark-only" transform="translate(5, 0)"><path fill="none" stroke="url(#textWhite)" stroke-linecap="round" stroke-linejoin="round" stroke-width="3.5" d="M 4 14 L 4 42 M 4 16 L 14 16 C 18 16 20.5 18.5 20.5 22 C 20.5 25.5 18 28 14 28 L 4 28"/><path fill="none" stroke="url(#textWhite)" stroke-linecap="round" stroke-linejoin="round" stroke-width="3.5" d="M 28 14 L 28 42 M 28 16 L 38 16 C 42 16 44.5 18.5 44.5 21.5 C 44.5 24.5 42 26.5 38 26.5 L 28 26.5 M 37 26.5 L 44.5 42"/><path fill="none" stroke="url(#textWhite)" stroke-linecap="round" stroke-width="3.5" d="M 52 14 L 52 42"/><path fill="none" stroke="url(#textWhite)" stroke-linecap="round" stroke-linejoin="round" stroke-width="3.5" d="M 70 20 C 67 16 63 16 60 18 C 57 20 57 23 60 24.5 C 63 26 66 26.5 69 28.5 C 72 30.5 72 34 69 36.5 C 66 39 62 39 59 36"/><path fill="none" stroke="url(#textWhite)" stroke-linecap="round" stroke-linejoin="round" stroke-width="3.5" d="M 80 42 L 80 14 L 89 32 L 98 14 L 98 42"/><ellipse cx="116" cy="28" fill="none" stroke="url(#textWhite)" stroke-width="3.5" rx="9" ry="14"/></g><line x1="9" x2="150" y1="48" y2="48" stroke="url(#textGrad)" stroke-linecap="round" stroke-width="2" opacity=".5"/></svg>